<svg aria-hidden="true" style="position: absolute; width: 0; height: 0; overflow: hidden;" version="1.1" xmlns="http://www.w3.org/2000/svg" xmlns:xlink="http://www.w3.org/1999/xlink">
<defs>
<symbol id="icon-phone" width="23" height="23" viewBox="0 0 23 23" fill="">
<path d="M18.1772 14.2479C17.7064 13.7576 17.1384 13.4955 16.5365 13.4955C15.9394 13.4955 15.3666 13.7527 14.8763 14.243L13.3424 15.7721C13.2161 15.7042 13.0899 15.6411 12.9686 15.578C12.7938 15.4906 12.6288 15.4081 12.488 15.3207C11.0511 14.4081 9.74532 13.2188 8.49291 11.6799C7.88612 10.913 7.47835 10.2673 7.18224 9.61201C7.5803 9.24794 7.94922 8.86931 8.30844 8.50523C8.44436 8.36931 8.58028 8.22854 8.7162 8.09262C9.73561 7.07321 9.73561 5.75284 8.7162 4.73344L7.39098 3.40821C7.24049 3.25773 7.08516 3.10239 6.93953 2.94705C6.64827 2.64608 6.34245 2.33541 6.02692 2.04415C5.55605 1.57814 4.99295 1.33057 4.40072 1.33057C3.8085 1.33057 3.23569 1.57814 2.75026 2.04415C2.7454 2.049 2.7454 2.049 2.74055 2.05386L1.09009 3.71889C0.468734 4.34024 0.11437 5.09751 0.0367008 5.97614C-0.0798026 7.3936 0.337668 8.71397 0.658052 9.57803C1.44445 11.6994 2.61919 13.6654 4.3716 15.7721C6.49778 18.3109 9.05601 20.3158 11.9783 21.7284C13.0948 22.2575 14.5851 22.8837 16.2501 22.9905C16.352 22.9953 16.4588 23.0002 16.5559 23.0002C17.6773 23.0002 18.619 22.5973 19.3568 21.7963C19.3617 21.7866 19.3714 21.7818 19.3763 21.7721C19.6287 21.4662 19.9199 21.1895 20.2258 20.8934C20.4345 20.6944 20.6481 20.4857 20.8568 20.2672C21.3374 19.7672 21.5898 19.1847 21.5898 18.5876C21.5898 17.9857 21.3325 17.408 20.8423 16.9226L18.1772 14.2479ZM19.9151 19.3595C19.9102 19.3595 19.9102 19.3643 19.9151 19.3595C19.7258 19.5633 19.5316 19.7478 19.3229 19.9517C19.0073 20.2527 18.687 20.5682 18.386 20.9226C17.8957 21.4468 17.318 21.6944 16.5608 21.6944C16.488 21.6944 16.4103 21.6944 16.3375 21.6895C14.8957 21.5973 13.5559 21.0342 12.5511 20.5536C9.80357 19.2235 7.39098 17.3352 5.38615 14.942C3.73083 12.9469 2.62405 11.1023 1.89105 9.12173C1.4396 7.91301 1.27455 6.97127 1.34736 6.08293C1.39591 5.51498 1.61435 5.04411 2.01726 4.6412L3.67258 2.98589C3.91044 2.76259 4.16286 2.64123 4.41043 2.64123C4.71625 2.64123 4.96382 2.82569 5.11916 2.98103C5.12402 2.98589 5.12887 2.99074 5.13372 2.99559C5.42984 3.27229 5.71139 3.55869 6.0075 3.86452C6.15798 4.01985 6.31332 4.17519 6.46866 4.33538L7.79389 5.66061C8.30844 6.17517 8.30844 6.65089 7.79389 7.16544C7.65311 7.30622 7.51719 7.44699 7.37641 7.58291C6.96865 8.00038 6.58031 8.38873 6.15798 8.76737C6.14827 8.77707 6.13857 8.78193 6.13371 8.79164C5.71624 9.20911 5.79391 9.61687 5.88129 9.89356C5.88614 9.90813 5.891 9.92269 5.89585 9.93725C6.24051 10.7722 6.72594 11.5586 7.46379 12.4955L7.46865 12.5003C8.80844 14.1508 10.221 15.4372 11.7793 16.4226C11.9783 16.5488 12.1822 16.6508 12.3764 16.7478C12.5511 16.8352 12.7162 16.9177 12.8569 17.0051C12.8763 17.0148 12.8958 17.0294 12.9152 17.0391C13.0802 17.1216 13.2356 17.1605 13.3958 17.1605C13.7987 17.1605 14.0511 16.908 14.1336 16.8255L15.7938 15.1653C15.9588 15.0003 16.221 14.8013 16.5268 14.8013C16.8278 14.8013 17.0753 14.9906 17.2258 15.1556C17.2307 15.1605 17.2307 15.1605 17.2355 15.1653L19.9102 17.8401C20.4102 18.3352 20.4102 18.8449 19.9151 19.3595Z" fill=""/>
<path d="M12.4297 5.47092C13.7016 5.68451 14.8569 6.28644 15.7792 7.20876C16.7015 8.13108 17.2986 9.2864 17.5171 10.5582C17.5705 10.8786 17.8472 11.1019 18.1627 11.1019C18.2015 11.1019 18.2355 11.0971 18.2743 11.0922C18.6335 11.034 18.8714 10.6942 18.8132 10.3349C18.551 8.79612 17.8229 7.39322 16.7112 6.28159C15.5996 5.16995 14.1967 4.4418 12.6579 4.17967C12.2987 4.12142 11.9637 4.35928 11.9006 4.71365C11.8375 5.06801 12.0705 5.41267 12.4297 5.47092Z" fill=""/>
<path d="M22.9733 10.1458C22.5413 7.61184 21.3471 5.30604 19.5122 3.47111C17.6772 1.63618 15.3715 0.442024 12.8375 0.00999088C12.4831 -0.0531151 12.1482 0.1896 12.0851 0.543965C12.0268 0.903184 12.2647 1.23813 12.6239 1.30124C14.886 1.68473 16.9491 2.75753 18.5899 4.39343C20.2306 6.03419 21.2986 8.09727 21.6821 10.3594C21.7354 10.6798 22.0121 10.9031 22.3277 10.9031C22.3665 10.9031 22.4005 10.8982 22.4393 10.8933C22.7937 10.84 23.0364 10.5002 22.9733 10.1458Z" fill=""/>
</symbol>
<symbol id="icon-kolpac" width="87" height="87" viewBox="0 0 87 87" fill="">
<path d="M18.2958 53.5948C17.8698 54.213 18.0255 55.0595 18.6436 55.4855C19.2618 55.9115 20.1084 55.7559 20.5344 55.1377C20.5434 55.1248 20.552 55.1115 20.5605 55.0983C25.2857 47.9462 33.2858 43.6441 41.8578 43.6455C42.6086 43.6455 43.2172 43.0369 43.2172 42.2861C43.2172 41.5354 42.6086 40.9268 41.8578 40.9268C32.3747 40.9244 23.5238 45.683 18.2958 53.5948Z" fill=""/>
<path d="M85.6406 70.833H77.4844V69.1909C77.516 60.384 73.9245 51.9518 67.5528 45.8722C67.0248 45.3383 66.1642 45.3335 65.6303 45.8613C65.0964 46.3892 65.0916 47.2499 65.6194 47.7838C65.6354 47.7999 65.6517 47.8157 65.6685 47.831C71.5045 53.4002 74.794 61.124 74.7655 69.1909V70.833H12.2344V69.1909C12.2524 52.8378 25.5048 39.5854 41.8579 39.5674H45.1421C47.6673 39.5657 50.1824 39.8855 52.6268 40.5189C53.3461 40.7342 54.1036 40.3257 54.3189 39.6065C54.5342 38.8872 54.1257 38.1297 53.4064 37.9144C53.3735 37.9045 53.34 37.8959 53.3064 37.8886C51.4289 37.4043 49.5117 37.0899 47.578 36.9492V32.7705C47.578 32.0198 46.9693 31.4111 46.2186 31.4111H40.7811C40.0304 31.4111 39.4217 32.0198 39.4217 32.7705V36.9492C22.5643 38.2403 9.53771 52.284 9.51546 69.1909V70.833H1.35938C0.60866 70.833 0 71.4417 0 72.1924C0 72.9431 0.60866 73.5518 1.35938 73.5518H85.6406C86.3913 73.5518 87 72.9431 87 72.1924C87 71.4417 86.3913 70.833 85.6406 70.833ZM42.1406 34.1299H44.8594V36.8486H42.1406V34.1299Z" fill=""/>
<path d="M57.5478 30.382C58.8134 31.5116 59.8125 32.4034 59.8125 34.2236C59.8125 36.0438 58.8134 36.9355 57.5478 38.072C55.6239 39.4164 54.4477 41.5904 54.375 43.9363C54.375 44.687 54.9837 45.2957 55.7344 45.2957C56.4851 45.2957 57.0938 44.687 57.0938 43.9363C57.0938 42.1161 58.0929 41.2244 59.3585 40.0947C61.2835 38.7483 62.4597 36.5717 62.5312 34.2236C62.4597 31.8758 61.2835 29.6997 59.3585 28.3538C58.0929 27.2241 57.0938 26.3324 57.0938 24.5136C57.0938 22.6947 58.0929 21.8043 59.3585 20.6747C61.2835 19.3301 62.4599 17.1547 62.5312 14.8076C62.5312 14.0569 61.9226 13.4482 61.1719 13.4482C60.4212 13.4482 59.8125 14.0569 59.8125 14.8076C59.8125 16.6251 58.8134 17.5155 57.5478 18.6451C55.6224 19.9902 54.446 22.1661 54.375 24.5136C54.4467 26.8609 55.6229 29.0365 57.5478 30.382Z" fill=""/>
<path d="M65.704 30.382C66.9696 31.5116 67.9688 32.4034 67.9688 34.2236C67.9688 36.0438 66.9696 36.9423 65.704 38.0665C63.7786 39.4121 62.6023 41.5883 62.5312 43.9363C62.5312 44.687 63.1399 45.2957 63.8906 45.2957C64.6413 45.2957 65.25 44.687 65.25 43.9363C65.25 42.1161 66.2491 41.2244 67.5147 40.0947C69.4398 38.7483 70.616 36.5717 70.6875 34.2236C70.616 31.8758 69.4398 29.6997 67.5147 28.3538C66.2491 27.2241 65.25 26.3324 65.25 24.5136C65.25 22.6947 66.2491 21.8043 67.5147 20.6747C69.4398 19.3301 70.6161 17.1547 70.6875 14.8076C70.6875 14.0569 70.0788 13.4482 69.3281 13.4482C68.5774 13.4482 67.9688 14.0569 67.9688 14.8076C67.9688 16.6251 66.9696 17.5155 65.704 18.6451C63.7786 19.9902 62.6023 22.1661 62.5312 24.5136C62.603 26.8609 63.7792 29.0365 65.704 30.382Z" fill=""/>
<path d="M73.8603 30.382C75.1259 31.5116 76.125 32.4034 76.125 34.2236C76.125 36.0438 75.1259 36.9423 73.8603 38.0665C71.9349 39.4121 70.7585 41.5883 70.6875 43.9363C70.6875 44.687 71.2962 45.2957 72.0469 45.2957C72.7976 45.2957 73.4062 44.687 73.4062 43.9363C73.4062 42.1161 74.4054 41.2244 75.671 40.0947C77.596 38.7483 78.7722 36.5717 78.8438 34.2236C78.7722 31.8758 77.596 29.6997 75.671 28.3538C74.4054 27.2241 73.4062 26.3324 73.4062 24.5136C73.4062 22.6947 74.4054 21.8043 75.671 20.6747C77.596 19.3301 78.7724 17.1547 78.8438 14.8076C78.8438 14.0569 78.2351 13.4482 77.4844 13.4482C76.7337 13.4482 76.125 14.0569 76.125 14.8076C76.125 16.6251 75.1259 17.5155 73.8603 18.6451C71.9349 19.9902 70.7585 22.1661 70.6875 24.5136C70.7592 26.8609 71.9354 29.0365 73.8603 30.382Z" fill=""/>

<symbol id="icon-phone-footer" viewBox="0 0 32 32">
<path d="M22 20c-2 2-2 4-4 4s-4-2-6-4-4-4-4-6 2-2 4-4-4-8-6-8-6 6-6 6c0 4 4.109 12.109 8 16s12 8 16 8c0 0 6-4 6-6s-6-8-8-6z"></path>
</symbol>
<symbol id="icon-envelop-footer" viewBox="0 0 32 32">
<path d="M29 4h-26c-1.65 0-3 1.35-3 3v20c0 1.65 1.35 3 3 3h26c1.65 0 3-1.35 3-3v-20c0-1.65-1.35-3-3-3zM12.461 17.199l-8.461 6.59v-15.676l8.461 9.086zM5.512 8h20.976l-10.488 7.875-10.488-7.875zM12.79 17.553l3.21 3.447 3.21-3.447 6.58 8.447h-19.579l6.58-8.447zM19.539 17.199l8.461-9.086v15.676l-8.461-6.59z"></path>
</symbol>
<symbol id="icon-location-footer" viewBox="0 0 32 32">
<path d="M16 0c-5.523 0-10 4.477-10 10 0 10 10 22 10 22s10-12 10-22c0-5.523-4.477-10-10-10zM16 16c-3.314 0-6-2.686-6-6s2.686-6 6-6 6 2.686 6 6-2.686 6-6 6z"></path>
</symbol>
<symbol id="icon-facebook2-footer" viewBox="0 0 32 32">
<path d="M29 0h-26c-1.65 0-3 1.35-3 3v26c0 1.65 1.35 3 3 3h13v-14h-4v-4h4v-2c0-3.306 2.694-6 6-6h4v4h-4c-1.1 0-2 0.9-2 2v2h6l-1 4h-5v14h9c1.65 0 3-1.35 3-3v-26c0-1.65-1.35-3-3-3z"></path>
</symbol>
<symbol id="icon-instagram-footer" viewBox="0 0 32 32">
<path d="M16 2.881c4.275 0 4.781 0.019 6.462 0.094 1.563 0.069 2.406 0.331 2.969 0.55 0.744 0.288 1.281 0.638 1.837 1.194 0.563 0.563 0.906 1.094 1.2 1.838 0.219 0.563 0.481 1.412 0.55 2.969 0.075 1.688 0.094 2.194 0.094 6.463s-0.019 4.781-0.094 6.463c-0.069 1.563-0.331 2.406-0.55 2.969-0.288 0.744-0.637 1.281-1.194 1.837-0.563 0.563-1.094 0.906-1.837 1.2-0.563 0.219-1.413 0.481-2.969 0.55-1.688 0.075-2.194 0.094-6.463 0.094s-4.781-0.019-6.463-0.094c-1.563-0.069-2.406-0.331-2.969-0.55-0.744-0.288-1.281-0.637-1.838-1.194-0.563-0.563-0.906-1.094-1.2-1.837-0.219-0.563-0.481-1.413-0.55-2.969-0.075-1.688-0.094-2.194-0.094-6.463s0.019-4.781 0.094-6.463c0.069-1.563 0.331-2.406 0.55-2.969 0.288-0.744 0.638-1.281 1.194-1.838 0.563-0.563 1.094-0.906 1.838-1.2 0.563-0.219 1.412-0.481 2.969-0.55 1.681-0.075 2.188-0.094 6.463-0.094zM16 0c-4.344 0-4.887 0.019-6.594 0.094-1.7 0.075-2.869 0.35-3.881 0.744-1.056 0.412-1.95 0.956-2.837 1.85-0.894 0.888-1.438 1.781-1.85 2.831-0.394 1.019-0.669 2.181-0.744 3.881-0.075 1.713-0.094 2.256-0.094 6.6s0.019 4.887 0.094 6.594c0.075 1.7 0.35 2.869 0.744 3.881 0.413 1.056 0.956 1.95 1.85 2.837 0.887 0.887 1.781 1.438 2.831 1.844 1.019 0.394 2.181 0.669 3.881 0.744 1.706 0.075 2.25 0.094 6.594 0.094s4.888-0.019 6.594-0.094c1.7-0.075 2.869-0.35 3.881-0.744 1.050-0.406 1.944-0.956 2.831-1.844s1.438-1.781 1.844-2.831c0.394-1.019 0.669-2.181 0.744-3.881 0.075-1.706 0.094-2.25 0.094-6.594s-0.019-4.887-0.094-6.594c-0.075-1.7-0.35-2.869-0.744-3.881-0.394-1.063-0.938-1.956-1.831-2.844-0.887-0.887-1.781-1.438-2.831-1.844-1.019-0.394-2.181-0.669-3.881-0.744-1.712-0.081-2.256-0.1-6.6-0.1v0z"></path>
<path d="M16 7.781c-4.537 0-8.219 3.681-8.219 8.219s3.681 8.219 8.219 8.219 8.219-3.681 8.219-8.219c0-4.537-3.681-8.219-8.219-8.219zM16 21.331c-2.944 0-5.331-2.387-5.331-5.331s2.387-5.331 5.331-5.331c2.944 0 5.331 2.387 5.331 5.331s-2.387 5.331-5.331 5.331z"></path>
<path d="M26.462 7.456c0 1.060-0.859 1.919-1.919 1.919s-1.919-0.859-1.919-1.919c0-1.060 0.859-1.919 1.919-1.919s1.919 0.859 1.919 1.919z"></path>
</symbol>
<symbol id="icon-telegram-footer" viewBox="0 0 32 32">
<path d="M16 0c-8.838 0-16 7.162-16 16s7.162 16 16 16 16-7.163 16-16-7.163-16-16-16zM23.863 10.969l-2.625 12.369c-0.181 0.881-0.712 1.087-1.45 0.681l-4-2.956-1.919 1.869c-0.225 0.219-0.4 0.4-0.8 0.4-0.519 0-0.431-0.194-0.606-0.688l-1.363-4.475-3.956-1.231c-0.856-0.262-0.862-0.85 0.194-1.269l15.412-5.95c0.7-0.319 1.381 0.169 1.113 1.25z"></path>
</symbol>
<symbol id="icon-twitter-footer" viewBox="0 0 32 32">
<path d="M32 7.075c-1.175 0.525-2.444 0.875-3.769 1.031 1.356-0.813 2.394-2.1 2.887-3.631-1.269 0.75-2.675 1.3-4.169 1.594-1.2-1.275-2.906-2.069-4.794-2.069-3.625 0-6.563 2.938-6.563 6.563 0 0.512 0.056 1.012 0.169 1.494-5.456-0.275-10.294-2.888-13.531-6.862-0.563 0.969-0.887 2.1-0.887 3.3 0 2.275 1.156 4.287 2.919 5.463-1.075-0.031-2.087-0.331-2.975-0.819 0 0.025 0 0.056 0 0.081 0 3.181 2.263 5.838 5.269 6.437-0.55 0.15-1.131 0.231-1.731 0.231-0.425 0-0.831-0.044-1.237-0.119 0.838 2.606 3.263 4.506 6.131 4.563-2.25 1.762-5.075 2.813-8.156 2.813-0.531 0-1.050-0.031-1.569-0.094 2.913 1.869 6.362 2.95 10.069 2.95 12.075 0 18.681-10.006 18.681-18.681 0-0.287-0.006-0.569-0.019-0.85 1.281-0.919 2.394-2.075 3.275-3.394z"></path>
</symbol>

<symbol id="icon-cross" width="11" height="11" viewBox="0 0 11 11">
<path d="M11 1.10786L9.89214 0L5.5 4.39214L1.10786 0L0 1.10786L4.39214 5.5L0 9.89214L1.10786 11L5.5 6.60786L9.89214 11L11 9.89214L6.60786 5.5L11 1.10786Z" fill=""/>
</symbol>


<symbol id="icon-menu-mob-open" width="40" height="40"  viewBox="0 0 40 40">
<path fill-rule="evenodd" clip-rule="evenodd" d="M8 14.6667V12H32V14.6667H8ZM8 21.3333H32V18.6667H8V21.3333ZM8 28H32V25.3333H8V28Z" fill="#ff7400"/>
</symbol>

<symbol id="icon-mobile-close" width="40" height="40" viewBox="0 0 40 40" fill="#ff7400">

<path d="M29.6667 12.88L27.7867 11L20.3333 18.4533L12.88 11L11 12.88L18.4533 20.3333L11 27.7867L12.88 29.6667L20.3333 22.2133L27.7867 29.6667L29.6667 27.7867L22.2133 20.3333L29.6667 12.88Z" fill=""/>
</symbol>

</defs>
</svg>
